<svg width="13" height="8" viewBox="0 0 13 8" fill="none" xmlns="http://www.w3.org/2000/svg">
<mask id="path-1-inside-1_92_1217" fill="white">
<path d="M6.25 7.125L0 0.875L0.875 0L6.25 5.375L11.625 0L12.5 0.875L6.25 7.125Z"/>
</mask>
<path d="M6.25 7.125L0 0.875L0.875 0L6.25 5.375L11.625 0L12.5 0.875L6.25 7.125Z" fill="#121417"/>
<path d="M6.25 7.125L5.18934 8.18566L6.25 9.24632L7.31066 8.18566L6.25 7.125ZM0 0.875L-1.06066 -0.18566L-2.12132 0.875L-1.06066 1.93566L0 0.875ZM0.875 0L1.93566 -1.06066L0.875 -2.12132L-0.18566 -1.06066L0.875 0ZM6.25 5.375L5.18934 6.43566L6.25 7.49632L7.31066 6.43566L6.25 5.375ZM11.625 0L12.6857 -1.06066L11.625 -2.12132L10.5643 -1.06066L11.625 0ZM12.5 0.875L13.5607 1.93566L14.6213 0.875001L13.5607 -0.185659L12.5 0.875ZM7.31066 6.06434L1.06066 -0.18566L-1.06066 1.93566L5.18934 8.18566L7.31066 6.06434ZM1.06066 1.93566L1.93566 1.06066L-0.18566 -1.06066L-1.06066 -0.18566L1.06066 1.93566ZM-0.18566 1.06066L5.18934 6.43566L7.31066 4.31434L1.93566 -1.06066L-0.18566 1.06066ZM7.31066 6.43566L12.6857 1.06066L10.5643 -1.06066L5.18934 4.31434L7.31066 6.43566ZM10.5643 1.06066L11.4393 1.93566L13.5607 -0.185659L12.6857 -1.06066L10.5643 1.06066ZM11.4393 -0.18566L5.18934 6.06434L7.31066 8.18566L13.5607 1.93566L11.4393 -0.18566Z" fill="#121417" mask="url(#path-1-inside-1_92_1217)"/>
</svg>
