<svg width="15" height="4" viewBox="0 0 15 4" fill="none" xmlns="http://www.w3.org/2000/svg">
<path d="M1.73805 3.34399C0.77005 3.34399 4.98742e-05 2.61799 4.98742e-05 1.71599V1.60599C4.98742e-05 0.725986 0.77005 -1.34408e-05 1.73805 -1.34408e-05C2.68405 -1.34408e-05 3.49805 0.725986 3.49805 1.60599V1.71599C3.49805 2.61799 2.68405 3.34399 1.73805 3.34399ZM7.06617 3.34399C6.09817 3.34399 5.32817 2.61799 5.32817 1.71599V1.60599C5.32817 0.725986 6.09817 -1.34408e-05 7.06617 -1.34408e-05C8.01217 -1.34408e-05 8.82617 0.725986 8.82617 1.60599V1.71599C8.82617 2.61799 8.01217 3.34399 7.06617 3.34399ZM12.3943 3.34399C11.4263 3.34399 10.6563 2.61799 10.6563 1.71599V1.60599C10.6563 0.725986 11.4263 -1.34408e-05 12.3943 -1.34408e-05C13.3403 -1.34408e-05 14.1543 0.725986 14.1543 1.60599V1.71599C14.1543 2.61799 13.3403 3.34399 12.3943 3.34399Z" fill="#121417" fill-opacity="0.5"/>
</svg>
