<svg width="182" height="36" viewBox="0 0 182 36" fill="none" xmlns="http://www.w3.org/2000/svg">
<circle cx="18" cy="18" r="18" fill="#85AA9F"/>
<path fill-rule="evenodd" clip-rule="evenodd" d="M17.9504 16.6667C23.2339 12.6817 23.4672 10.2667 17.9504 6C12.3284 10.3577 13.053 12.6675 17.9504 16.6667ZM16.6667 18.0504C12.6817 12.7669 10.2667 12.5337 6 18.0504C10.3577 23.6724 12.6675 22.9478 16.6667 18.0504ZM29.9998 18.0504C26.0149 12.7669 23.5998 12.5337 19.3331 18.0504C23.6908 23.6724 26.0006 22.9478 29.9998 18.0504ZM17.9504 29.9997C23.2339 26.0148 23.4672 23.5997 17.9504 19.333C12.3284 23.6907 13.053 26.0005 17.9504 29.9997Z" fill="#FCFCFC"/>
<path d="M56.23 24L52.144 11.4H54.628L57.706 21.534H57.868L60.946 11.4H63.43L59.326 24H56.23ZM68.2889 24.162C65.4089 24.162 63.3389 22.2 63.3389 19.446V19.194C63.3389 16.44 65.4089 14.478 68.2889 14.478H68.4329C71.3129 14.478 73.3829 16.44 73.3829 19.194V19.446C73.3829 22.2 71.3129 24.162 68.4329 24.162H68.2889ZM68.3069 22.398H68.4149C69.9449 22.398 71.0609 21.156 71.0609 19.41V19.23C71.0609 17.484 69.9629 16.242 68.4149 16.242H68.3069C66.7769 16.242 65.6789 17.484 65.6789 19.23V19.41C65.6789 21.156 66.7769 22.398 68.3069 22.398ZM79.7456 24.144C76.9196 24.144 74.9756 22.2 74.9756 19.446V19.158C74.9756 16.44 76.9916 14.496 79.7096 14.496H79.8176C81.6356 14.496 83.0216 15.324 83.8496 16.638L82.1936 17.736C81.6896 16.782 80.9156 16.278 79.8536 16.278H79.7996C78.2516 16.278 77.2976 17.376 77.2976 19.23V19.41C77.2976 21.192 78.3596 22.326 79.8896 22.326H79.9796C81.0596 22.326 81.8156 21.75 82.3016 20.868L83.9216 22.074C83.0576 23.352 81.6896 24.144 79.8716 24.144H79.7456ZM88.3916 24.18C86.4476 24.18 85.1156 23.046 85.1156 21.39V21.264C85.1156 19.266 87.0056 18.222 90.7676 18.222H91.5236V17.808C91.5236 16.89 90.8216 16.296 89.5796 16.296H89.5256C88.5536 16.296 87.4196 16.656 86.4836 17.25L85.5656 15.63C86.7176 14.91 88.1576 14.442 89.6516 14.442H89.7596C91.9916 14.442 93.6296 15.612 93.6296 17.844V22.074C93.6296 22.722 93.7736 23.388 93.9536 24H91.8296C91.7216 23.712 91.6316 23.298 91.5776 22.884C90.7856 23.676 89.6696 24.18 88.3916 24.18ZM88.8416 22.38C89.8856 22.38 90.8756 21.93 91.5236 21.228V19.662H90.8936C88.4276 19.662 87.2756 20.166 87.2756 21.156V21.228C87.2756 21.894 87.9056 22.38 88.8416 22.38ZM101.675 24.162C100.325 24.162 99.1545 23.64 98.3625 22.758C98.3265 23.172 98.2005 23.694 98.0925 24H96.3285V11.04H98.5605V15.702C99.3345 14.928 100.415 14.478 101.675 14.478H101.765C104.357 14.478 106.247 16.422 106.247 19.086V19.554C106.247 22.218 104.357 24.162 101.765 24.162H101.675ZM101.171 22.38H101.315C102.863 22.38 103.925 21.192 103.925 19.518V19.122C103.925 17.448 102.863 16.26 101.315 16.26H101.171C99.6225 16.26 98.5605 17.448 98.5605 19.122V19.518C98.5605 21.192 99.6225 22.38 101.171 22.38ZM108.549 24V11.4H113.355C115.839 11.4 117.549 12.678 117.549 14.55V14.676C117.549 15.756 117.081 16.62 116.037 17.286C117.423 17.862 118.179 18.996 118.179 20.382V20.49C118.179 22.614 116.487 24 113.877 24H108.549ZM110.817 16.692H113.301C114.507 16.692 115.227 16.044 115.227 15.072V14.964C115.227 14.028 114.543 13.434 113.337 13.434H110.817V16.692ZM110.817 21.966H113.751C115.029 21.966 115.821 21.318 115.821 20.292V20.202C115.821 19.14 115.011 18.474 113.715 18.474H110.817V21.966ZM123.49 24.18C121.348 24.18 120.178 22.902 120.178 20.634V14.64H122.41V20.166C122.41 21.498 122.986 22.236 124.228 22.236H124.264C125.74 22.236 126.712 21.246 126.712 19.662V14.64H128.944V24H127.18C127.054 23.64 126.928 23.01 126.91 22.596C126.1 23.568 124.912 24.18 123.526 24.18H123.49ZM132.741 13.182C131.967 13.182 131.427 12.696 131.427 11.994C131.427 11.292 131.967 10.77 132.741 10.77C133.533 10.77 134.091 11.292 134.091 11.994C134.091 12.696 133.533 13.182 132.741 13.182ZM131.643 24V14.64H133.875V24H131.643ZM136.74 24V11.04H138.972V24H136.74ZM145.64 24.162C143.03 24.162 141.158 22.218 141.158 19.446V19.194C141.158 16.422 143.03 14.478 145.64 14.478H145.73C146.99 14.478 148.07 14.928 148.844 15.72V11.04H151.076V24H149.312C149.204 23.694 149.078 23.136 149.042 22.74C148.232 23.64 147.08 24.162 145.73 24.162H145.64ZM146.09 22.38H146.234C147.782 22.38 148.844 21.192 148.844 19.41V19.23C148.844 17.448 147.782 16.26 146.234 16.26H146.09C144.542 16.26 143.48 17.448 143.48 19.23V19.41C143.48 21.192 144.542 22.38 146.09 22.38ZM158.04 24.162C155.196 24.162 153.216 22.254 153.216 19.5V19.248C153.216 16.494 155.25 14.478 158.004 14.478H158.112C160.704 14.478 162.576 16.278 162.576 18.798V20.004H155.43V20.022C155.592 21.372 156.672 22.29 158.184 22.29H158.274C159.426 22.29 160.47 21.768 161.01 21.084L162.252 22.434C161.37 23.496 159.75 24.162 158.202 24.162H158.04ZM155.484 18.51H160.452C160.344 17.178 159.39 16.224 158.022 16.224H158.004C156.708 16.224 155.736 17.124 155.484 18.51ZM164.76 24V14.64H166.524C166.65 15 166.776 15.558 166.794 15.972C167.514 15.144 168.576 14.64 169.872 14.64H170.088V16.8C169.908 16.728 169.692 16.692 169.494 16.692C167.874 16.692 166.992 17.592 166.992 19.032V24H164.76Z" fill="#121417"/>
</svg>
