<svg width="214" height="40" viewBox="0 0 214 40" fill="none" xmlns="http://www.w3.org/2000/svg">
<circle cx="20" cy="20" r="20" fill="#85AA9F"/>
<path fill-rule="evenodd" clip-rule="evenodd" d="M20.4431 19C26.3871 14.517 26.6495 11.8 20.4431 7C14.1184 11.9024 14.9336 14.501 20.4431 19ZM19 20.5569C14.517 14.613 11.8 14.3505 7 20.5569C11.9024 26.8816 14.501 26.0664 19 20.5569ZM34 20.5569C29.517 14.613 26.8 14.3505 22 20.5569C26.9024 26.8816 29.501 26.0664 34 20.5569ZM20.4431 34C26.3871 29.517 26.6495 26.8 20.4431 22C14.1184 26.9024 14.9336 29.501 20.4431 34Z" fill="#FCFCFC"/>
<path d="M61.17 28L56.176 12.6H59.212L62.974 24.986H63.172L66.934 12.6H69.97L64.954 28H61.17ZM75.9086 28.198C72.3886 28.198 69.8586 25.8 69.8586 22.434V22.126C69.8586 18.76 72.3886 16.362 75.9086 16.362H76.0846C79.6046 16.362 82.1346 18.76 82.1346 22.126V22.434C82.1346 25.8 79.6046 28.198 76.0846 28.198H75.9086ZM75.9306 26.042H76.0626C77.9326 26.042 79.2966 24.524 79.2966 22.39V22.17C79.2966 20.036 77.9546 18.518 76.0626 18.518H75.9306C74.0606 18.518 72.7186 20.036 72.7186 22.17V22.39C72.7186 24.524 74.0606 26.042 75.9306 26.042ZM89.9113 28.176C86.4573 28.176 84.0813 25.8 84.0813 22.434V22.082C84.0813 18.76 86.5453 16.384 89.8673 16.384H89.9993C92.2213 16.384 93.9153 17.396 94.9273 19.002L92.9033 20.344C92.2873 19.178 91.3413 18.562 90.0433 18.562H89.9773C88.0853 18.562 86.9193 19.904 86.9193 22.17V22.39C86.9193 24.568 88.2173 25.954 90.0873 25.954H90.1973C91.5173 25.954 92.4413 25.25 93.0353 24.172L95.0153 25.646C93.9593 27.208 92.2873 28.176 90.0653 28.176H89.9113ZM100.479 28.22C98.1027 28.22 96.4747 26.834 96.4747 24.81V24.656C96.4747 22.214 98.7847 20.938 103.383 20.938H104.307V20.432C104.307 19.31 103.449 18.584 101.931 18.584H101.865C100.677 18.584 99.2907 19.024 98.1467 19.75L97.0247 17.77C98.4327 16.89 100.193 16.318 102.019 16.318H102.151C104.879 16.318 106.881 17.748 106.881 20.476V25.646C106.881 26.438 107.057 27.252 107.277 28H104.681C104.549 27.648 104.439 27.142 104.373 26.636C103.405 27.604 102.041 28.22 100.479 28.22ZM101.029 26.02C102.305 26.02 103.515 25.47 104.307 24.612V22.698H103.537C100.523 22.698 99.1147 23.314 99.1147 24.524V24.612C99.1147 25.426 99.8847 26.02 101.029 26.02ZM116.713 28.198C115.063 28.198 113.633 27.56 112.665 26.482C112.621 26.988 112.467 27.626 112.335 28H110.179V12.16H112.907V17.858C113.853 16.912 115.173 16.362 116.713 16.362H116.823C119.991 16.362 122.301 18.738 122.301 21.994V22.566C122.301 25.822 119.991 28.198 116.823 28.198H116.713ZM116.097 26.02H116.273C118.165 26.02 119.463 24.568 119.463 22.522V22.038C119.463 19.992 118.165 18.54 116.273 18.54H116.097C114.205 18.54 112.907 19.992 112.907 22.038V22.522C112.907 24.568 114.205 26.02 116.097 26.02ZM125.116 28V12.6H130.99C134.026 12.6 136.116 14.162 136.116 16.45V16.604C136.116 17.924 135.544 18.98 134.268 19.794C135.962 20.498 136.886 21.884 136.886 23.578V23.71C136.886 26.306 134.818 28 131.628 28H125.116ZM127.888 19.068H130.924C132.398 19.068 133.278 18.276 133.278 17.088V16.956C133.278 15.812 132.442 15.086 130.968 15.086H127.888V19.068ZM127.888 25.514H131.474C133.036 25.514 134.004 24.722 134.004 23.468V23.358C134.004 22.06 133.014 21.246 131.43 21.246H127.888V25.514ZM143.377 28.22C140.759 28.22 139.329 26.658 139.329 23.886V16.56H142.057V23.314C142.057 24.942 142.761 25.844 144.279 25.844H144.323C146.127 25.844 147.315 24.634 147.315 22.698V16.56H150.043V28H147.887C147.733 27.56 147.579 26.79 147.557 26.284C146.567 27.472 145.115 28.22 143.421 28.22H143.377ZM154.683 14.778C153.737 14.778 153.077 14.184 153.077 13.326C153.077 12.468 153.737 11.83 154.683 11.83C155.651 11.83 156.333 12.468 156.333 13.326C156.333 14.184 155.651 14.778 154.683 14.778ZM153.341 28V16.56H156.069V28H153.341ZM159.571 28V12.16H162.299V28H159.571ZM170.448 28.198C167.258 28.198 164.97 25.822 164.97 22.434V22.126C164.97 18.738 167.258 16.362 170.448 16.362H170.558C172.098 16.362 173.418 16.912 174.364 17.88V12.16H177.092V28H174.936C174.804 27.626 174.65 26.944 174.606 26.46C173.616 27.56 172.208 28.198 170.558 28.198H170.448ZM170.998 26.02H171.174C173.066 26.02 174.364 24.568 174.364 22.39V22.17C174.364 19.992 173.066 18.54 171.174 18.54H170.998C169.106 18.54 167.808 19.992 167.808 22.17V22.39C167.808 24.568 169.106 26.02 170.998 26.02ZM185.604 28.198C182.128 28.198 179.708 25.866 179.708 22.5V22.192C179.708 18.826 182.194 16.362 185.56 16.362H185.692C188.86 16.362 191.148 18.562 191.148 21.642V23.116H182.414V23.138C182.612 24.788 183.932 25.91 185.78 25.91H185.89C187.298 25.91 188.574 25.272 189.234 24.436L190.752 26.086C189.674 27.384 187.694 28.198 185.802 28.198H185.604ZM182.48 21.29H188.552C188.42 19.662 187.254 18.496 185.582 18.496H185.56C183.976 18.496 182.788 19.596 182.48 21.29ZM193.818 28V16.56H195.974C196.128 17 196.282 17.682 196.304 18.188C197.184 17.176 198.482 16.56 200.066 16.56H200.33V19.2C200.11 19.112 199.846 19.068 199.604 19.068C197.624 19.068 196.546 20.168 196.546 21.928V28H193.818Z" fill="#121417"/>
</svg>
